<?xml version="1.0" encoding="UTF-8" standalone="no"?><svg xmlns="http://www.w3.org/2000/svg" xmlns:xlink="http://www.w3.org/1999/xlink" fill="#050a30" height="864.6" preserveAspectRatio="xMidYMid meet" version="1" viewBox="25.0 67.7 950.0 864.6" width="950" zoomAndPan="magnify"><g id="change1_1"><path d="M84.8,649.1v-221h630.4V473c17.7-3.8,35.9-5.7,54.6-5.7h5.2V284c0-45.9-37.2-82.9-82.9-82.9H218v-50.3 c0-12.8,10.6-23.4,23.4-23.4h583.9c12.8,0,23.1,10.6,23.1,23.4v328.6c21.2,6.5,41.3,16,59.8,27.7V150.9c0-45.9-37.2-83.2-82.9-83.2 H241.4c-45.9,0-83.2,37.2-83.2,83.2v50.3h-50c-45.9,0-83.2,37-83.2,82.9v365c0,45.7,37.2,82.9,83.2,82.9h401.7v-4.9 c0-18.8,1.9-37.2,5.7-54.9H108.2C95.1,672.2,84.8,661.9,84.8,649.1z M84.8,284c0-12.8,10.3-23.4,23.4-23.4H692 c12.8,0,23.1,10.6,23.1,23.4V333H84.8V284z"/><path d="M150.5,553.3c-4.7,0-8.5,3.8-8.5,8.5v46.1c0,4.7,3.8,8.5,8.5,8.5h79.1c4.7,0,8.5-3.8,8.5-8.5v-46.1c0-4.7-3.8-8.5-8.5-8.5 H150.5z"/><path d="M290.5,553.3c-4.7,0-8.5,3.8-8.5,8.5v46.1c0,4.7,3.8,8.5,8.5,8.5h79.1c4.7,0,8.5-3.8,8.5-8.5v-46.1c0-4.7-3.8-8.5-8.5-8.5 H290.5z"/><path d="M509.6,553.3h-79.1c-4.7,0-8.5,3.8-8.5,8.5v46.1c0,4.7,3.8,8.5,8.5,8.5h79.1c4.7,0,8.5-3.8,8.5-8.5v-46.1 C518.1,557.1,514.3,553.3,509.6,553.3z"/><path d="M769.7,521.7c-113.4,0-205.3,91.9-205.3,205.3c0,113.4,91.9,205.3,205.3,205.3C883.1,932.3,975,840.4,975,727 C975,613.7,883.1,521.7,769.7,521.7z M865.9,694.8L763.1,797.7c-5.1,5.1-12,8-19.2,8c-7.2,0-14.1-2.9-19.2-8l-51.1-51.1 c-10.6-10.6-10.6-27.8,0-38.4c10.6-10.6,27.8-10.6,38.4,0l31.9,31.9l83.6-83.6c10.6-10.6,27.8-10.6,38.4,0 C876.5,667,876.5,684.2,865.9,694.8z"/></g></svg>