<?xml version="1.0" encoding="UTF-8" standalone="no"?><svg xmlns="http://www.w3.org/2000/svg" xmlns:xlink="http://www.w3.org/1999/xlink" clip-rule="evenodd" fill="#050a30" fill-rule="evenodd" height="1161" image-rendering="optimizeQuality" preserveAspectRatio="xMidYMid meet" shape-rendering="geometricPrecision" text-rendering="geometricPrecision" version="1" viewBox="0.0 0.0 920.0 1161.0" width="920" zoomAndPan="magnify"><g id="change1_1"><path d="M131 998l0 -143 46 0c17,0 29,1 34,2 8,3 15,7 21,14 5,8 8,17 8,28 0,9 -2,16 -5,22 -3,6 -7,11 -12,15 -5,3 -10,5 -15,6 -7,2 -17,2 -30,2l-18 0 0 54 -29 0 0 0zm-76 5c0,46 37,84 84,84l341 0c46,0 84,-38 84,-84l0 -249 55 0 0 311c0,53 -44,96 -97,96l-419 0c-53,0 -97,-43 -97,-96l0 -106c0,-167 0,-334 0,-502l-5 0 0 -90 5 0 0 -23 -5 0 0 -92 5 0 0 -41 -6 0 0 -51 6 0c0,-26 0,-42 0,-63 0,-54 44,-97 97,-97l419 0c53,0 97,43 97,97l0 128 -55 0 0 -67c0,-47 -38,-84 -84,-84l-34 0c-9,22 -31,37 -57,37l-160 0c-26,0 -48,-15 -57,-37l-33 0c-47,0 -84,37 -84,84 0,281 0,563 0,845zm865 -326c0,20 -17,36 -36,36l-629 0c-20,0 -36,-16 -36,-36l0 -362c0,-20 16,-36 36,-36l629 0c19,0 36,16 36,36l0 362zm-343 -278c-2,1 -6,2 -12,2 -16,0 -24,-11 -24,-24 0,-16 11,-25 25,-25 6,0 10,1 12,2l-2 9c-3,-1 -6,-2 -9,-2 -9,0 -15,5 -15,16 0,9 5,15 15,15 3,0 7,-1 9,-2l1 9 0 0zm274 -27c-1,-1 -3,-2 -5,-2 -8,0 -15,9 -15,18 0,4 2,8 7,8 4,0 9,-5 11,-13l2 -11 0 0zm10 -21l-7 38c-1,4 -2,8 -2,11l-5 0 1 -7 0 0c-3,5 -8,8 -13,8 -6,0 -10,-6 -10,-13 0,-12 9,-22 21,-22 2,0 5,0 6,1l3 -16 6 0 0 0zm-57 49l4 -22c0,-4 1,-9 1,-12l5 0c0,3 0,5 0,8l0 0c2,-5 5,-8 10,-8 0,0 1,0 2,0l-2 5c0,0 0,0 -1,0 -5,0 -9,6 -11,14l-3 15 -5 0 0 0zm-11 -29c0,-1 -2,-1 -4,-1 -8,0 -15,9 -16,18 0,4 2,8 6,8 5,0 11,-6 12,-15l2 -10 0 0zm-3 29c0,-2 0,-5 0,-9l0 0c-3,7 -8,10 -13,10 -6,0 -9,-5 -9,-11 0,-12 8,-24 23,-24 3,0 7,0 9,1l-4 17c-1,6 -1,12 -1,16l-5 0 0 0zm-28 -2c-3,2 -7,3 -12,3 -12,0 -19,-8 -19,-20 0,-9 3,-17 10,-22 5,-4 11,-7 17,-7 6,0 9,2 11,3l-2 4c-2,-1 -5,-2 -10,-2 -4,0 -9,2 -13,6 -4,4 -7,10 -7,17 0,9 4,16 14,16 4,0 8,-1 10,-2l1 4 0 0zm-44 -42l0 10 8 0 0 8 -8 0 0 12c0,4 1,6 4,6 2,0 3,0 3,0l0 8c-1,0 -4,1 -6,1 -4,0 -7,-2 -8,-3 -2,-2 -3,-6 -3,-10l0 -14 -5 0 0 -8 5 0 0 -7 10 -3 0 0zm-31 44l0 -34 11 0 0 34 -11 0zm11 -43c0,2 -2,5 -6,5 -3,0 -5,-3 -5,-5 0,-4 2,-6 6,-6 3,0 5,2 5,6zm-30 23c0,0 0,-1 0,-2 -1,-2 -3,-5 -6,-5 -5,0 -7,5 -7,10 0,6 2,9 7,9 3,0 5,-2 6,-5 0,-1 0,-1 0,-2l0 -5 0 0zm11 -29l0 39c0,4 0,8 0,10l-9 0 -1 -5 0 0c-2,4 -6,6 -11,6 -8,0 -14,-7 -14,-18 0,-11 7,-18 15,-18 4,0 8,2 9,4l0 0 0 -18 11 0zm-49 28c0,-3 -1,-7 -6,-7 -5,0 -6,4 -7,7l13 0 0 0zm-13 7c1,5 5,7 10,7 4,0 7,-1 9,-2l2 7c-4,2 -8,3 -13,3 -11,0 -18,-7 -18,-18 0,-8 6,-18 17,-18 11,0 16,9 16,17 0,2 -1,4 -1,4l-22 0zm-34 -9c0,-5 0,-8 0,-11l9 0 1 6 0 0c2,-5 6,-7 9,-7 1,0 2,0 2,0l0 10c0,0 -1,0 -3,0 -3,0 -6,2 -7,5 0,1 0,2 0,3l0 17 -11 0 0 -23zm-300 70c0,13 11,23 24,23l25 0 0 -26 -49 0 0 3zm100 23l24 0c13,0 24,-10 24,-23l0 -3 -48 0 0 26zm0 -35l48 0 0 -27 -48 0 0 27zm0 -35l48 0 0 -28 -48 0 0 28zm-100 0l49 0 0 -28 -49 0 0 28zm124 -63l-24 0 -8 0 -34 0 0 27 0 8 0 28 0 8 0 27 0 9 0 26 34 0 0 -26 0 -9 0 -27 0 -8 0 -28 0 -8 8 0 48 0 0 -3c0,-13 -11,-24 -24,-24zm-124 24l0 3 49 0 0 -27 -25 0c-13,0 -24,11 -24,24zm0 74l49 0 0 -27 -49 0 0 27zm2 182l197 0 0 36 -197 0 0 -36zm-1 -76l584 0 0 36 -584 0 0 -36zm545 70c-4,0 -9,1 -13,3 11,7 18,19 18,33 0,14 -7,27 -18,34 4,2 9,2 13,2 20,0 36,-16 36,-36 0,-20 -16,-36 -36,-36l0 0zm-8 36c0,-13 -7,-25 -18,-31 -6,-3 -12,-5 -18,-5 -20,0 -36,16 -36,36 0,20 16,36 36,36 6,0 12,-1 18,-4 11,-7 18,-18 18,-32zm-483 -601l-61 0c-3,0 -5,-2 -5,-5 0,-3 2,-5 5,-5l61 0c3,0 5,2 5,5 0,3 -2,5 -5,5zm-118 -5c0,7 -6,13 -13,13 -7,0 -12,-6 -12,-13 0,-7 5,-12 12,-12 7,0 13,5 13,12zm35 0c0,4 -3,7 -7,7 -3,0 -7,-3 -7,-7 0,-4 4,-7 7,-7 4,0 7,3 7,7zm181 0c0,8 -7,14 -14,14 -8,0 -14,-6 -14,-14 0,-7 6,-13 14,-13 7,0 14,6 14,13zm-54 0c0,4 -3,7 -6,7 -4,0 -6,-3 -6,-7 0,-3 2,-6 6,-6 3,0 6,3 6,6zm-222 838l0 41 15 0c12,0 19,-1 23,-2 4,-2 7,-4 9,-7 2,-3 3,-7 3,-11 0,-6 -1,-10 -4,-13 -3,-4 -7,-6 -12,-7 -3,0 -10,-1 -21,-1l-13 0 0 0 0 0zm218 119l-31 0 -13 -32 -57 0 -12 32 -31 0 56 -143 31 0 57 143zm-53 -56l-20 -53 -19 53 39 0zm87 56l0 0 0 0zm0 0l0 -60 -52 -83 34 0 34 57 33 -57 33 0 -53 83 0 60 -29 0z"/></g></svg>