<?xml version="1.0" encoding="UTF-8" standalone="no"?><svg xmlns="http://www.w3.org/2000/svg" xmlns:xlink="http://www.w3.org/1999/xlink" fill="#ec7e0f" height="1003.5" preserveAspectRatio="xMidYMid meet" version="1" viewBox="22.7 -18.3 950.0 1003.5" width="950" zoomAndPan="magnify"><g id="change1_1"><path d="M925.3,477.2c-25.9-3.7-49.9,14.6-53.6,40.5c-10.4,75.8-44.6,144.5-99,198.6C663,825.9,497.7,847.4,366.4,780.1l-65,73.3 c69.1,40,146.6,60.1,224.3,60.1c113.8,0,227.5-43.2,314.2-129.9c68.9-68.9,112.4-156.3,125.8-252.7 C969.4,505,951.4,480.9,925.3,477.2z"/><path d="M925,77.7c-26.1,0-47.4,21.3-47.4,47.6v67.3l-37.7-37.7c-173.4-173.2-455.3-173.2-628.7,0 C157.1,209,119.9,273.7,99.6,342.4c18.3-12.9,40.2-20.1,63.3-20.1h45.8c16.6-36.3,40-70.3,69.8-100.1 C414.7,86,636.5,86,772.6,222.2l37.7,37.7h-67.3c-26.4,0-47.6,21.3-47.6,47.4c0,26.4,21.3,47.6,47.6,47.6h182 c26.4,0,47.6-21.3,47.6-47.6v-182C972.7,98.9,951.4,77.7,925,77.7z"/><path d="M523.7,222.3c-26.2,0-47.5,21.3-47.5,47.5v199.4c0,21.3,14.2,40,34.7,45.8l146.3,41c4.3,1.2,8.6,1.8,12.8,1.8 c20.8,0,39.9-13.8,45.7-34.8c7.1-25.3-7.7-51.5-33-58.6l-111.6-31.3V269.8C571.2,243.5,549.9,222.3,523.7,222.3z"/><path d="M332.6,624.3h-80l99.7-177.9c9.7-17.3-2.8-38.6-22.6-38.6H163c-10.8,0-20.5,6.7-24.3,16.9L29,718.4c-6.3,17,6.2,35,24.3,35 h58.4l-63,192.8c-7.4,22.5,21.4,39,37.1,21.3l266.3-300C366.9,650.7,355,624.3,332.6,624.3z"/></g></svg>