<?xml version="1.0" encoding="UTF-8" standalone="no"?><svg xmlns="http://www.w3.org/2000/svg" xmlns:xlink="http://www.w3.org/1999/xlink" fill="#ec7e0f" height="2896.5" preserveAspectRatio="xMidYMid meet" version="1" viewBox="551.7 551.7 2896.6 2896.5" width="2896.6" zoomAndPan="magnify"><g id="change1_1"><path d="M3352.211,1903.931c-0.007,0-0.004,0-0.01,0c-53.044,0-96.055,43.004-96.061,96.05 c-0.069,692.637-563.573,1256.144-1256.152,1256.151c-0.058,0-0.087,0-0.145,0c-440.949,0-842.783-227.059-1070.683-598.72h206.135 c53.053,0,96.06-43.008,96.06-96.061s-43.007-96.061-96.06-96.061H673.122c-25.478,0-49.911,10.121-67.926,28.137 c-18.015,18.016-28.135,42.45-28.134,67.927l0.016,462.16c0.001,53.053,43.011,96.06,96.063,96.058 c53.052-0.002,96.059-43.011,96.057-96.063l-0.009-259.661c116.941,188.112,275.854,347.631,464.841,465.584 c112.505,70.218,233.943,124.535,360.938,161.443c131.01,38.074,267.226,57.378,404.872,57.378c0.051,0,0.11,0,0.161,0 c195.465-0.002,385.132-38.308,563.735-113.85c85.832-36.305,168.61-81.235,246.035-133.543 c76.665-51.794,148.754-111.272,214.266-176.784c65.511-65.511,124.99-137.601,176.786-214.268 c52.31-77.426,97.242-160.207,133.551-246.044c75.552-178.607,113.869-368.285,113.889-563.765 C3448.268,1946.948,3405.264,1903.936,3352.211,1903.931z"/><path d="M647.809,2096.052c53.053-0.006,96.056-43.019,96.05-96.071c-0.038-335.537,130.595-650.979,367.834-888.218 c237.242-237.242,552.709-367.896,888.291-367.896c424.935,0,813.5,210.843,1045.118,558.747l-257.908,0.04 c-53.053,0.008-96.054,43.023-96.046,96.076c0.009,53.049,43.012,96.045,96.061,96.045c0.003,0,0.012,0,0.015,0l484.92-0.075 c53.047-0.008,96.045-43.013,96.046-96.059l0.009-484.852c0.001-53.053-43.006-96.062-96.059-96.062c-0.004,0,0.001,0-0.002,0 c-53.049,0-96.06,43.009-96.061,96.058l-0.004,240.891c-109.974-152.815-249.142-283.493-410.151-384.009 c-112.503-70.234-233.937-124.568-360.93-161.493c-131.052-38.106-267.316-57.427-405.008-57.427 c-195.499,0-385.192,38.302-563.811,113.843c-85.842,36.303-168.627,81.233-246.057,133.54 c-76.669,51.794-148.762,111.273-214.273,176.785s-124.99,137.602-176.781,214.27c-52.305,77.427-97.23,160.209-133.529,246.046 c-75.531,178.611-113.817,368.291-113.794,563.772C551.744,2053.055,594.757,2096.058,647.809,2096.052z"/></g></svg>