<?xml version="1.0" encoding="UTF-8" standalone="no"?><svg xmlns="http://www.w3.org/2000/svg" fill="none" height="32" style="fill: none" viewBox="0 0 32 32" width="32"><path d="M31 16C31 24.2843 24.2843 31 16 31C7.71573 31 1 24.2843 1 16C1 7.71573 7.71573 1 16 1C24.2843 1 31 7.71573 31 16Z" fill="url(#paint0_linear_1283_2391)"/><g id="change1_1"><path clip-rule="evenodd" d="M9.60002 16C9.60002 12.4654 12.4654 9.6 16 9.6C19.5346 9.6 22.4 12.4654 22.4 16C22.4 19.5346 19.5346 22.4 16 22.4C14.7394 22.4 13.5661 22.0363 12.5766 21.4085C12.3735 21.2796 12.1232 21.249 11.895 21.325L10.0649 21.9351L10.675 20.105C10.751 19.8768 10.7204 19.6265 10.5915 19.4234C9.96369 18.4339 9.60002 17.2606 9.60002 16ZM16 8C11.5817 8 8.00002 11.5817 8.00002 16C8.00002 17.4345 8.37827 18.7827 9.0407 19.9481L8.04108 22.947C7.94525 23.2345 8.02007 23.5514 8.23434 23.7657C8.4486 23.9799 8.76554 24.0547 9.053 23.9589L12.0519 22.9593C13.2173 23.6217 14.5655 24 16 24C20.4183 24 24 20.4183 24 16C24 11.5817 20.4183 8 16 8ZM12.6057 12.6059C11.9883 13.2233 11.5732 13.9691 11.3626 14.7582C11.2486 15.1851 11.5023 15.6235 11.9292 15.7375C12.356 15.8514 12.7945 15.5977 12.9084 15.1709C13.0485 14.6463 13.3239 14.1504 13.7371 13.7373C14.1503 13.3241 14.6462 13.0486 15.1707 12.9086C15.5976 12.7946 15.8513 12.3562 15.7373 11.9293C15.6233 11.5024 15.1849 11.2488 14.758 11.3627C13.969 11.5734 13.2231 11.9885 12.6057 12.6059ZM17.2416 11.3627C16.8148 11.2488 16.3763 11.5024 16.2624 11.9293C16.1484 12.3562 16.4021 12.7946 16.829 12.9086C17.3535 13.0486 17.8494 13.3241 18.2626 13.7373C18.6757 14.1504 18.9512 14.6463 19.0912 15.1709C19.2052 15.5977 19.6436 15.8514 20.0705 15.7375C20.4974 15.6235 20.7511 15.1851 20.6371 14.7582C20.4265 13.9691 20.0113 13.2233 19.3939 12.6059C18.7766 11.9885 18.0307 11.5734 17.2416 11.3627ZM12.9084 16.8291C12.7945 16.4022 12.356 16.1486 11.9292 16.2625C11.5023 16.3765 11.2486 16.8149 11.3626 17.2418C11.5732 18.0309 11.9883 18.7767 12.6057 19.3941C13.2231 20.0115 13.969 20.4266 14.758 20.6373C15.1849 20.7512 15.6233 20.4975 15.7373 20.0707C15.8513 19.6438 15.5976 19.2054 15.1707 19.0914C14.6462 18.9514 14.1503 18.6759 13.7371 18.2627C13.3239 17.8496 13.0485 17.3537 12.9084 16.8291ZM16.829 19.0914C16.4021 19.2054 16.1484 19.6438 16.2624 20.0707C16.3763 20.4975 16.8148 20.7512 17.2416 20.6373C18.0307 20.4266 18.7766 20.0115 19.3939 19.3941C20.0113 18.7767 20.4265 18.0309 20.6371 17.2418C20.7511 16.8149 20.4974 16.3765 20.0705 16.2625C19.6436 16.1486 19.2052 16.4022 19.0912 16.8291C18.9512 17.3537 18.6757 17.8496 18.2626 18.2627C17.8494 18.6759 17.3535 18.9514 16.829 19.0914Z" fill="#ffffff" fill-rule="evenodd"/></g><defs><linearGradient gradientUnits="userSpaceOnUse" id="paint0_linear_1283_2391" x1="16" x2="22.136" y1="1" y2="31"><stop stop-color="#3bc330"/><stop offset="1" stop-color="#3bc330"/></linearGradient></defs></svg>